<?xml version="1.0" encoding="utf-8"?>
<!-- Generator: Adobe Illustrator 24.0.3, SVG Export Plug-In . SVG Version: 6.00 Build 0)  -->
<svg version="1.1" id="svg2" xmlns="http://www.w3.org/2000/svg" xmlns:xlink="http://www.w3.org/1999/xlink" x="0px" y="0px"
	 viewBox="0 0 1310.8 528.8" style="enable-background:new 0 0 1310.8 528.8;" xml:space="preserve">
<style type="text/css">
	.st0{fill:none;stroke:#000000;stroke-width:1.8;stroke-miterlimit:10;}
	.st1{fill:none;stroke:#000000;stroke-width:1.8;stroke-linejoin:round;}
	.st2{fill:none;stroke:#000000;stroke-width:1.8;stroke-linecap:round;stroke-linejoin:round;}
	.st3{fill:none;stroke:#000000;stroke-width:1.8;stroke-miterlimit:2.18;}
	.st4{fill:none;stroke:#000000;stroke-width:1.8;stroke-miterlimit:10;stroke-dasharray:8.0571,8.0571;}
	.st5{fill:none;stroke:#000000;stroke-width:1.8;stroke-miterlimit:10;stroke-dasharray:8.7282,8.7282;}
	.st6{fill:none;stroke:#000000;stroke-width:1.8;stroke-miterlimit:10;stroke-dasharray:10.5667,10.5667;}
	.st7{fill:none;stroke:#000000;stroke-width:1.8;stroke-miterlimit:10;stroke-dasharray:8.1333,8.1333;}
	.st8{fill:none;stroke:#000000;stroke-width:1.8;stroke-miterlimit:10;stroke-dasharray:8.3118,8.3118;}
	.st9{fill:none;stroke:#000000;stroke-width:1.8;stroke-miterlimit:10;stroke-dasharray:8.1,8.1;}
	.st10{fill:none;stroke:#000000;stroke-width:1.8;stroke-miterlimit:10;stroke-dasharray:4.6667,4.6667;}
	.st11{fill:none;stroke:#000000;stroke-width:1.8;stroke-miterlimit:10;stroke-dasharray:8.8316,8.8316;}
	.st12{fill:none;stroke:#000000;stroke-width:1.8;stroke-miterlimit:10;stroke-dasharray:8.0429,8.0429;}
	.st13{fill:none;stroke:#000000;stroke-width:1.8;stroke-miterlimit:10;stroke-dasharray:8.1818,8.1818;}
</style>
<title>hermitage-home</title>
<g id="layer2">
	<g id="g4695">
		<g id="g4652">
			<path id="rect3145" class="st0" d="M346.2,518.1v9.1h64.9V501h48.7v11.7H501v5.9h25v-5.8h41.2V501h57.4v-21.6h15.9V441h-46.7
				v13.3h-51.6v-34.1h-42.5v34.1h-42.5v-57.4h136.5v21.6h46.8v-44.9h-15.8v-20h-99.1v-60.8h114.9v-7.5h30V227h-30v-7.5H525.6v-53.3
				h99.1v-26.7h15.6V97.2h-45.8v19.2h-68.9V49.8h68.9v18.7h45.8v-45h-16.4V9h-21.6V1.5H459v16.6H155.2V1.5H2v100.7h63.2v33.3h-10v60
				h10v118.2h-10v57.4h10v38.3H4.5V501h41.6v15.8H156v-37.5h9.1v20.4H196v27.6h73.2v-9.1l0,0v-6.9l0,0v-9.1l0,0v-6.9l0,0v-9.2l0,0
				v-6.9l0,0V470l0,0v-6.9l0,0V454h-45v-0.1h-30v-81.2h-39.1V137.2h50V99.7h66.6v37.4h59.9V99.7h79.9v37.4h46.6v33.3h-29.2v168.1
				H458v33.3h-45.8v82.4H411V454h-64.9v9.2l0,0v6.9l0,0v9.2v6.9l0,0l0,0v9.2v6.9 M345.5,502.1v9.2v6.9 M62.9,58.9h59.9v21.6H62.9
				V58.9z M89.5,407.7h46.6v34.1H89.5V407.7L89.5,407.7z"/>
			<path id="path3364" class="st1" d="M225.7,122l12.5,16.2c0,0,4.3-6,15.6-10.5c11.2-4.5,17.3-3,17.3-3l0.2-18.3
				c-8.4-0.7-16.8,0.3-24.7,3C238.8,112,231.6,116.3,225.7,122z"/>
			<path id="path3364_1_" class="st1" d="M355.4,109.7c-7.8-2.7-15.9-4.2-24.2-3.5v18.7c0,0,6-1.5,17.1,3s15.4,10.4,15.4,10.4
				l12.3-16.1C370.1,116.5,363.1,112.2,355.4,109.7z"/>
			<path id="path4193" class="st1" d="M313.3,258.9c0,6.7-5.5,12.2-12.2,12.2s-12.2-5.5-12.2-12.2c0-6.7,5.5-12.2,12.2-12.2
				S313.3,252.2,313.3,258.9L313.3,258.9z"/>
			<path id="rect4195" class="st2" d="M277.7,213.8v33.8h3.2c6.3-10.9,20.2-14.8,31.1-8.5c3.5,2,6.5,5,8.5,8.5h3.2v-33.8
				c0,0-2.8-18.1-23-18.1S277.7,213.8,277.7,213.8L277.7,213.8z"/>
			<path id="rect4195-5" class="st2" d="M278.2,335.5v-65.1h3.2c6.3,10.9,20.2,14.7,31.2,8.5c3.5-2,6.5-5,8.5-8.5h3.4v65.1h-3.6
				c-5.7-4.1-12.5-6.2-19.5-6.1s-13.8,2.2-19.5,6.1H278.2z"/>
			<path id="path4260" class="st2" d="M254.5,273h13.4v79h11.6c0,0-1.4,13.5,2.5,22.8s14.1,11.5,14.1,11.5V398
				c0,0-10.5-0.8-18.8-11.7s-5.7-25.5-5.7-25.5h-17V273H254.5z"/>
			<path id="path4262" class="st2" d="M262.4,369.5h-15.9v-192c3.9,1.6,8.3,1.1,11.7-1.4c5.8-4.2,3.5-10.8,3.5-10.8h78.8
				c0,0-1.8,6.5,3.3,10.3c2.8,2.2,6.6,2.8,9.9,1.4v192.1h-14.3c0,0-0.2,37.7-38.5,37.6S262.4,369.5,262.4,369.5z"/>
			<path id="path4264" class="st2" d="M254.1,254.9H268V195l6.4-6.4h21.5v-17h-26.5c0,0-0.4,6.8-4.7,10.3s-10.6,4-10.6,4
				L254.1,254.9z"/>
			<path id="path4264-4" class="st2" d="M347.6,254.9h-13.9V195l-6.4-6.4h-21.5v-17h26.5c0,0,0.4,6.8,4.7,10.3s10.5,4,10.5,4
				L347.6,254.9L347.6,254.9z"/>
			<path id="path4260-3" class="st2" d="M347.5,273H334v79h-11.5c0,0,1.4,13.5-2.4,22.8S306,386.3,306,386.3V398
				c0,0,10.5-0.8,18.8-11.7s5.7-25.5,5.7-25.5h17V273z"/>
			<path id="path4302" class="st2" d="M318.2,357.4c0,12.1-7.5,22-16.8,22s-16.8-9.8-16.8-22s7.5-22,16.8-22
				S318.2,345.3,318.2,357.4z"/>
			<path id="path4308_1_" class="st3" d="M288.4,357.1"/>
			<path id="path4308-1_1_" class="st3" d="M314.6,357.1"/>
			<path id="path4308-1-2_3_" class="st3" d="M296.3,372.2"/>
			<path id="path4308-1-2_2_" class="st3" d="M302,375.7"/>
			<path id="path4308-1-2-3_1_" class="st3" d="M302.1,339"/>
			<g id="rect4364">
				<g>
					<polyline class="st0" points="671.4,4.8 667.1,4.8 667.1,9.2 					"/>
					<line class="st4" x1="667.1" y1="17.2" x2="667.1" y2="61.5"/>
					<polyline class="st0" points="667.1,65.5 667.1,69.9 670.5,69.9 670.5,74.2 					"/>
					<line class="st5" x1="670.5" y1="83" x2="670.5" y2="410.3"/>
					<polyline class="st0" points="670.5,414.6 670.5,419 675.5,419 675.5,423.4 					"/>
					<line class="st6" x1="675.5" y1="433.9" x2="675.5" y2="449.8"/>
					<polyline class="st0" points="675.5,455 675.5,459.4 679.8,459.4 					"/>
					<line class="st7" x1="688" y1="459.4" x2="749" y2="459.4"/>
					<polyline class="st0" points="753.1,459.4 757.4,459.4 757.4,455 					"/>
					<line class="st6" x1="757.4" y1="444.5" x2="757.4" y2="428.6"/>
					<polyline class="st0" points="757.4,423.4 757.4,419 762.3,419 762.3,414.6 					"/>
					<line class="st8" x1="762.3" y1="406.3" x2="762.3" y2="277.5"/>
					<polyline class="st0" points="762.3,273.4 762.3,269 766.7,269 					"/>
					<line class="st9" x1="774.8" y1="269" x2="786.9" y2="269"/>
					<polyline class="st0" points="791,269 795.3,269 795.3,264.6 					"/>
					<line class="st10" x1="795.3" y1="260" x2="795.3" y2="253"/>
					<polyline class="st0" points="795.3,250.6 795.3,246.3 791,246.3 					"/>
					<line class="st9" x1="782.9" y1="246.3" x2="770.7" y2="246.3"/>
					<polyline class="st0" points="766.7,246.3 762.3,246.3 762.3,242 					"/>
					<line class="st11" x1="762.3" y1="233.1" x2="762.3" y2="78.6"/>
					<polyline class="st0" points="762.3,74.1 762.3,69.8 765.8,69.8 765.8,65.5 					"/>
					<line class="st12" x1="765.8" y1="57.4" x2="765.8" y2="13.2"/>
					<polyline class="st0" points="765.8,9.2 765.8,4.8 761.5,4.8 					"/>
					<line class="st13" x1="753.3" y1="4.8" x2="675.5" y2="4.8"/>
				</g>
			</g>
			<path id="rect4376" class="st0" d="M801.2,80.7v104.5h-5.9V272h5.9v101.6h-7.9v75h68v-7.9h189.3v7.9h68v-81.9h-6.9V102.4h-61.1
				v82.8H862.3V80.7H801.2z M867.2,244.4h25.6V271h153.8v115.4h-67v-98.6h-56.2v98.6h-65.1V271h8.9V244.4z"/>
			<path id="rect4397" class="st0" d="M799.2,9.7v9.9h-8.9v61.1h97.6V63.9h144v17.8h82.8V62.9h-8.9V9.7H799.2z"/>
			<rect id="rect4404" x="1127.9" y="8.7" class="st0" width="181.4" height="181.4"/>
		</g>
	</g>
</g>
</svg>
