<svg xmlns="http://www.w3.org/2000/svg" xmlns:xlink="http://www.w3.org/1999/xlink" viewBox="0 0 24 30" width="40px" version="1.1" x="0px" y="0px">
  <title>Light/Microphone</title>
  <desc>Created with Sketch.</desc>
  <g stroke="none" stroke-width="1" fill="none" fill-rule="evenodd">
    <g>
      <rect x="0" y="0" width="24" height="24" />
      <path d="M12.5,18.982418 L12.5,21 L15.5,21 L15.5,22 L8.5,22 L8.5,21 L11.5,21 L11.5,18.982418 C7.86736221,18.7260447 5,15.6978765 5,12 L6.00127622,12 C6.06781854,15.2560006 8.72805922,17.875 12,17.875 C15.2719408,17.875 17.9321815,15.2560006 17.9987238,12 L19,12 C19,15.6978765 16.1326378,18.7260447 12.5,18.982418 Z M12,2 C14.209139,2 16,3.790861 16,6 L16,12 C16,14.209139 14.209139,16 12,16 C9.790861,16 8,14.209139 8,12 L8,6 C8,3.790861 9.790861,2 12,2 Z M12,3 C10.3431458,3 9,4.34314575 9,6 L9,12 C9,13.6568542 10.3431458,15 12,15 C13.6568542,15 15,13.6568542 15,12 L15,6 C15,4.34314575 13.6568542,3 12,3 Z" fill="#000000" />
    </g>
  </g>
  <text x="0" y="39" fill="#000000" font-size="5px" font-weight="bold" font-family="'Helvetica Neue', Helvetica, Arial-Unicode, Arial, Sans-serif">Created by Alex Chamorro</text>
  <text x="0" y="44" fill="#000000" font-size="5px" font-weight="bold" font-family="'Helvetica Neue', Helvetica, Arial-Unicode, Arial, Sans-serif">from the Noun Project</text>
</svg>