<svg xmlns="http://www.w3.org/2000/svg" xmlns:xlink="http://www.w3.org/1999/xlink" viewBox="0 0 24 30" version="1.1" width="40px" x="0px" y="0px">
  <title>Light/Camera</title>
  <desc>Created with Sketch.</desc>
  <g stroke="none" stroke-width="1" fill="none" fill-rule="evenodd">
    <g>
      <rect fill-rule="nonzero" x="0" y="0" width="24" height="24" />
      <path d="M6.5,8 L3,8 L3,20 L21,20 L21,8 L17.5,8 L17.2368469,8 L15.1897461,5 L8.81,5 L6.75,8 L6.5,8 Z M6.26025391,7 L8.31,4 L15.6897461,4 L17.7397461,7 L21,7 L22,7 L22,20 L22,21 L2,21 L2,20 L2,7 L3,7 L6.26025391,7 Z M12,18 C9.51471863,18 7.5,15.9852814 7.5,13.5 C7.5,11.0147186 9.51471863,9 12,9 C14.4852814,9 16.5,11.0147186 16.5,13.5 C16.5,15.9852814 14.4852814,18 12,18 Z M12,17 C13.9329966,17 15.5,15.4329966 15.5,13.5 C15.5,11.5670034 13.9329966,10 12,10 C10.0670034,10 8.5,11.5670034 8.5,13.5 C8.5,15.4329966 10.0670034,17 12,17 Z" fill="#000000" />
    </g>
  </g>
 </svg>