<svg xmlns="http://www.w3.org/2000/svg" xmlns:xlink="http://www.w3.org/1999/xlink" viewBox="0 0 32 35" width="35px" version="1.1" x="0px" y="0px">
  <title>Document New</title>
  <desc>Created with Sketch.</desc>
  <g stroke="none" stroke-width="8" fill="none" fill-rule="evenodd">
    <path d="M16.5,15.6 L20.5,15.6 L20.5,16.6 L16.5,16.6 L16.5,20.6 L15.5,20.6 L15.5,16.6 L11.5,16.6 L11.5,15.6 L15.5,15.6 L15.5,11.6 L16.5,11.6 L16.5,15.6 Z" fill="#000000" />
    <path d="M28.9967041,10 L23.9967041,10 L23.9967041,9 L23.9967041,5 L2.9967041,5 L2.9967041,27 L28.9967041,27 L28.9967041,10 Z M28.9967041,9 L28.7,9 L24.9967041,5 L24.9967041,9 L28.9967041,9 Z M29.9934082,10 L29.9934082,28 L28.9967041,28 L2.9967041,28 L2,28 L2,5 L2,4 L25,4 L25.4,4 L29.996704,9 L29.9967041,10 L29.9934082,10 Z" fill="#000000" />
  </g>
</svg>