<svg xmlns="http://www.w3.org/2000/svg" xmlns:xlink="http://www.w3.org/1999/xlink" viewBox="0 0 32 35" width="35px" version="1.1" x="0px" y="0px">
  <title>Document New</title>
  <title>Document</title>
  <desc>Created with Sketch.</desc>
  <g stroke="none" stroke-width="1" fill="none" fill-rule="evenodd">
    <path d="M28.9967041,10 L23.9967041,10 L23.9967041,9 L23.9967041,5 L2.9967041,5 L2.9967041,27 L28.9967041,27 L28.9967041,10 Z M28.9967041,9 L28.6,9 L24.9967041,5 L24.9967041,9 L28.9967041,9 Z M29.9934082,10 L29.9934082,28 L28.9967041,28 L2.9967041,28 L2,28 L2,5 L2,4 L25,4 L25.5046387,4 L29.996704,9 L29.9967041,10 L29.9934082,10 Z" fill="#000000" />
    <path d="M12.5,15.5 L19.5,15.5 L19.5,16.5 L12.5,16.5 L12.5,15.5 Z" fill="#000000" />
  </g>
</svg>