<svg id="Capa_1" data-name="Capa 1" xmlns="http://www.w3.org/2000/svg" viewBox="0 0 12.01 5.97"><defs><style>.cls-1{fill:none;stroke:#000;stroke-miterlimit:10;stroke-width:0.25px;}</style></defs><title>favicon</title><path class="cls-1" d="M3.27,2.21a1.6,1.6,0,0,1,1.3.56A2.36,2.36,0,0,1,5,4.33a4.07,4.07,0,0,1-.22,1.35,4,4,0,0,1-.64,1.15,3.22,3.22,0,0,1-1,.81A2.53,2.53,0,0,1,2,7.94a1.64,1.64,0,0,1-.55-.08,1.1,1.1,0,0,1-.35-.22,2.52,2.52,0,0,1-.26-.29c-.07-.09-.14-.1-.2,0a1.36,1.36,0,0,0-.21.49H.25C.32,7.59.39,7.32.46,7S.62,6.36.71,6H.88a2.67,2.67,0,0,0,0,.57A1.79,1.79,0,0,0,1,7.07a1.14,1.14,0,0,0,.41.51A1.08,1.08,0,0,0,2,7.77a1.48,1.48,0,0,0,.87-.28,2.7,2.7,0,0,0,.71-.78A4.22,4.22,0,0,0,4.1,5.57a5.11,5.11,0,0,0,.18-1.38A2.59,2.59,0,0,0,4,2.82a.89.89,0,0,0-.79-.44,1.52,1.52,0,0,0-.68.17,2,2,0,0,0-.66.53,5.07,5.07,0,0,0-.33.45A3.59,3.59,0,0,0,1.3,4H1.14c.08-.34.14-.65.19-.92s.1-.52.13-.75h.17a1.79,1.79,0,0,0,0,.3c0,.14,0,.21.06.23s.1,0,.18-.07a3.83,3.83,0,0,1,.61-.41A1.62,1.62,0,0,1,3.27,2.21ZM2,4.49a.91.91,0,0,1,.41.09,1.77,1.77,0,0,1,.33.19A2.27,2.27,0,0,0,3.11,5a.88.88,0,0,0,.41.09A1.22,1.22,0,0,0,3.94,5a.66.66,0,0,0,.34-.34l0,0a1.25,1.25,0,0,1-.48.68,1.23,1.23,0,0,1-.68.23.93.93,0,0,1-.42-.09,2.27,2.27,0,0,1-.34-.19,2.07,2.07,0,0,0-.32-.19A.75.75,0,0,0,1.71,5a.73.73,0,0,0-.36.1A1,1,0,0,0,1,5.38L.92,5.27a3.52,3.52,0,0,1,.5-.56A.86.86,0,0,1,2,4.49Z" transform="translate(-0.08 -2.09)"/><path class="cls-1" d="M5,7.05a.7.7,0,0,0,.21.31.46.46,0,0,0,.24.08.29.29,0,0,0,.26-.13A1.69,1.69,0,0,0,5.84,7l.3-.74a2.34,2.34,0,0,1,.41-.73,1.52,1.52,0,0,1,.52-.4,3,3,0,0,1,.64-.2l0,.09a2.24,2.24,0,0,0-.4.32,2,2,0,0,0-.4.74l-.3.83a3,3,0,0,1-.39.79.61.61,0,0,1-.53.26.71.71,0,0,1-.49-.2,1.24,1.24,0,0,1-.31-.63ZM6.86,2.4h0s0,.09,0,.14a.68.68,0,0,1,0,.15.67.67,0,0,1-.08.3.63.63,0,0,1-.18.24.43.43,0,0,1-.26.09.21.21,0,0,1-.19-.08.42.42,0,0,1,0-.2.8.8,0,0,1,.11-.4.74.74,0,0,1,.27-.31.6.6,0,0,1,.36-.12.65.65,0,0,1,.2,0,.44.44,0,0,1,.16.17.66.66,0,0,1,.06.46c0,.2-.06.42-.1.65a3.63,3.63,0,0,0-.06.64,1,1,0,0,0,.12.49.55.55,0,0,0,.45.23l0,.09a.64.64,0,0,1-.57-.22A1.08,1.08,0,0,1,7,4.2,3.34,3.34,0,0,1,7,3.58c0-.22.07-.43.1-.62a.64.64,0,0,0,0-.43A.22.22,0,0,0,7,2.43.32.32,0,0,0,6.86,2.4ZM8.53,6.86a1.06,1.06,0,0,0,0,.62c.06.09.21.14.47.15l0,.18-.44,0H7.45L7,7.81l0-.18a1.52,1.52,0,0,0,.39-.07.43.43,0,0,0,.22-.22,1.7,1.7,0,0,0,.15-.48l.79-3.57c.07-.33.08-.54,0-.62s-.21-.14-.46-.15l0-.18.4,0H9.7l.44,0,0,.18a1.06,1.06,0,0,0-.4.07.38.38,0,0,0-.22.21,2.54,2.54,0,0,0-.16.49Zm-.89-2C7.83,4.8,8,4.77,8,4.8s.08.07.06.16-.1.2-.21.18l-.3-.09Zm2,.15a.78.78,0,0,1-.38.1c-.09,0-.12-.06-.11-.15a.25.25,0,0,1,.11-.18c.07,0,.18,0,.33.08Zm1.15,2.4a.39.39,0,0,0,.32-.17,1.55,1.55,0,0,0,.24-.53l.12-.46h.16l-.2.69A1.77,1.77,0,0,1,11,7.7a.72.72,0,0,1-.55.24A.54.54,0,0,1,10,7.66a1.27,1.27,0,0,1-.12-.77l0-.66a2.12,2.12,0,0,0-.08-.86C9.71,5.13,9.59,5,9.44,5V4.91A2,2,0,0,1,10,5.1a.83.83,0,0,1,.36.42,1.79,1.79,0,0,1,.11.8l0,.65a.57.57,0,0,0,.07.38A.26.26,0,0,0,10.74,7.44Zm.44-4.91a1.51,1.51,0,0,0-.24.46l-.2.64a4.7,4.7,0,0,1-.24.66,1.47,1.47,0,0,1-.38.5.88.88,0,0,1-.6.19V4.89a.91.91,0,0,0,.55-.25,1.5,1.5,0,0,0,.33-.51,6,6,0,0,0,.21-.64c.06-.22.12-.43.19-.62a1.09,1.09,0,0,1,.26-.45,1,1,0,0,1,.24-.17,1,1,0,0,1,.21,0,.39.39,0,0,1,.36.16.57.57,0,0,1,.09.37,1,1,0,0,1-.11.37.35.35,0,0,1-.33.21.24.24,0,0,1-.23-.12.42.42,0,0,1-.06-.27.77.77,0,0,1,.07-.27,1,1,0,0,1,.17-.26h0a.33.33,0,0,0-.15,0A.53.53,0,0,0,11.18,2.53Z" transform="translate(-0.08 -2.09)"/></svg>