<?xml version="1.0" encoding="utf-8"?>
<!-- Generator: Adobe Illustrator 24.0.3, SVG Export Plug-In . SVG Version: 6.00 Build 0)  -->
<svg version="1.1" id="svg2" xmlns="http://www.w3.org/2000/svg" xmlns:xlink="http://www.w3.org/1999/xlink" x="0px" y="0px"
	 viewBox="0 0 1310.8 528.8" style="enable-background:new 0 0 1310.8 528.8;" xml:space="preserve">
<style type="text/css">
	.st0{fill:none;stroke:#000000;stroke-width:3;stroke-miterlimit:10;}
	.st1{fill:none;stroke:#000000;stroke-width:3;stroke-linejoin:round;}
	.st2{fill:none;stroke:#000000;stroke-width:3;stroke-linecap:round;stroke-linejoin:round;}
	.st3{fill:none;stroke:#000000;stroke-width:3;stroke-miterlimit:2.18;}
</style>
<title>hermitage-home</title>
<g id="layer2">
	<g id="g4695">
		<g id="g4652">
			<path id="rect3145" class="st0" d="M345.7,518.1v9.1h64.9V501h48.7v11.7h41.2v5.9h25v-5.8h41.2V501h57.4v-21.6H640V441h-46.7
				v13.3h-51.6v-34.1h-42.5v34.1h-42.5v-57.4h136.5v21.6H640v-44.9h-15.8v-20h-99.1v-60.8H640v-7.5h30v-58.3h-30v-7.5H525.1v-53.3
				h99.1v-26.7h15.6V97.2H594v19.2h-68.9V49.8H594v18.7h45.8v-45h-16.4V9h-21.6V1.5H458.5v16.6H154.7V1.5H1.5v100.7h63.2v33.3h-10
				v60h10v118.2h-10v57.4h10v38.3H4V501h41.6v15.8h109.9v-37.5h9.1v20.4h30.9v27.6h73.2v-9.1l0,0v-6.9l0,0v-9.1l0,0v-6.9l0,0v-9.2
				l0,0v-6.9l0,0v-9.2l0,0v-6.9l0,0V454h-45v-0.1h-30v-81.2h-39.1V137.2h50V99.7h66.6v37.4h59.9V99.7h79.9v37.4h46.6v33.3h-29.2
				v168.1h29.1v33.3h-45.8v82.4h-1.2V454h-64.9v9.2l0,0v6.9l0,0v9.2v6.9l0,0l0,0v9.2v6.9 M345.7,502.1v9.2v6.9 M63.1,58.9H123v21.6
				H63.1V58.9z M89.7,407.7h46.6v34.1H89.7V407.7L89.7,407.7z"/>
			<path id="path3364" class="st1" d="M225.7,122l12.5,16.2c0,0,4.3-6,15.6-10.5c11.2-4.5,17.3-3,17.3-3l0.2-18.3
				c-8.4-0.7-16.8,0.3-24.7,3C238.8,112,231.6,116.3,225.7,122z"/>
			<path id="path3364_1_" class="st1" d="M355.4,109.7c-7.8-2.7-15.9-4.2-24.2-3.5v18.7c0,0,6-1.5,17.1,3
				c11.1,4.5,15.4,10.4,15.4,10.4l12.3-16.1C370.1,116.5,363.1,112.2,355.4,109.7z"/>
			<path id="path4193" class="st1" d="M313.3,258.9c0,6.7-5.5,12.2-12.2,12.2c-6.7,0-12.2-5.5-12.2-12.2c0-6.7,5.5-12.2,12.2-12.2
				S313.3,252.2,313.3,258.9L313.3,258.9z"/>
			<path id="rect4195" class="st2" d="M277.7,213.8v33.8h3.2c6.3-10.9,20.2-14.8,31.1-8.5c3.5,2,6.5,5,8.5,8.5h3.2v-33.8
				c0,0-2.8-18.1-23-18.1S277.7,213.8,277.7,213.8L277.7,213.8z"/>
			<path id="rect4195-5" class="st2" d="M278.2,335.5v-65.1h3.2c6.3,10.9,20.2,14.7,31.2,8.5c3.5-2,6.5-5,8.5-8.5h3.4v65.1h-3.6
				c-5.7-4.1-12.5-6.2-19.5-6.1c-7,0.1-13.8,2.2-19.5,6.1H278.2z"/>
			<path id="path4260" class="st2" d="M254.5,273h13.4v79h11.6c0,0-1.4,13.5,2.5,22.8s14.1,11.5,14.1,11.5V398
				c0,0-10.5-0.8-18.8-11.7s-5.7-25.5-5.7-25.5h-17V273z"/>
			<path id="path4262" class="st2" d="M262.4,369.5h-15.9v-192c3.9,1.6,8.3,1.1,11.7-1.4c5.8-4.2,3.5-10.8,3.5-10.8h78.8
				c0,0-1.8,6.5,3.3,10.3c2.8,2.2,6.6,2.8,9.9,1.4v192.1h-14.3c0,0-0.2,37.7-38.5,37.6S262.4,369.5,262.4,369.5z"/>
			<path id="path4264" class="st2" d="M254.1,254.9H268V195l6.4-6.4h21.5v-17h-26.5c0,0-0.4,6.8-4.7,10.3s-10.6,4-10.6,4
				L254.1,254.9z"/>
			<path id="path4264-4" class="st2" d="M347.6,254.9h-13.9V195l-6.4-6.4h-21.5v-17h26.5c0,0,0.4,6.8,4.7,10.3s10.5,4,10.5,4V254.9z
				"/>
			<path id="path4260-3" class="st2" d="M347.5,273H334v79h-11.5c0,0,1.4,13.5-2.4,22.8s-14.1,11.5-14.1,11.5V398
				c0,0,10.5-0.8,18.8-11.7s5.7-25.5,5.7-25.5h17V273z"/>
			<path id="path4302" class="st2" d="M318.2,357.4c0,12.1-7.5,22-16.8,22s-16.8-9.8-16.8-22s7.5-22,16.8-22
				S318.2,345.3,318.2,357.4z"/>
			<path id="path4308_1_" class="st3" d="M288.4,357.1"/>
			<path id="path4308-1_1_" class="st3" d="M314.6,357.1"/>
			<path id="path4308-1-2_3_" class="st3" d="M296.3,372.2"/>
			<path id="path4308-1-2_2_" class="st3" d="M302,375.7"/>
			<path id="path4308-1-2-3_1_" class="st3" d="M302.1,339"/>
			<path id="rect4364" class="st0" d="M667.1,4.8v65.1h3.4v349.1h5v40.4h81.9v-40.4h4.9V269h33v-22.7h-33V69.8h3.5V4.8H667.1z"/>
			<path id="rect4376" class="st0" d="M801.2,80.7v104.5h-5.9V272h5.9v101.6h-7.9v75h68v-7.9h189.3v7.9h68v-81.9h-6.9V102.4h-61.1
				v82.8H862.3V80.7H801.2z M867.2,244.4h25.6V271h153.8v115.4h-67v-98.6h-56.2v98.6h-65.1V271h8.9L867.2,244.4z"/>
			<path id="rect4397" class="st0" d="M799.2,9.7v9.9h-8.9v61.1h97.6V63.9h144v17.8h82.8V62.9h-8.9V9.7H799.2z"/>
			<rect id="rect4404" x="1127.9" y="8.7" class="st0" width="181.4" height="181.4"/>
		</g>
	</g>
</g>
</svg>
