<svg id="Capa_1" data-name="Capa 1" xmlns="http://www.w3.org/2000/svg" viewBox="0 0 1117.31 344.37"><defs><style>.cls-1{font-size:250px;font-family:MonsieurLaDoulaise-Regular, Monsieur La Doulaise;}.cls-2{fill:none;stroke:#000;stroke-miterlimit:10;stroke-width:2px;}</style></defs><title>home-logo</title><text class="cls-1" transform="translate(223.75 216.12)">ermitage</text><path class="cls-2" d="M91.82,114.89q24.87,0,38.64,13.89t13.78,38.75a86.51,86.51,0,0,1-6.72,33.6A92.19,92.19,0,0,1,89.92,250a87.47,87.47,0,0,1-36.18,7.39q-10.08,0-16.35-2a31.71,31.71,0,0,1-10.3-5.26,76.8,76.8,0,0,1-7.84-7.28q-3.15-3.59-6.05-.67T6.93,254.22H2q2.91-8.28,6.38-19.71t7.28-26.66h4.93a74.82,74.82,0,0,0-.45,14.34,36.09,36.09,0,0,0,3.36,13.66,29.39,29.39,0,0,0,12.1,12.66,38.1,38.1,0,0,0,19.49,4.82,49.75,49.75,0,0,0,25.64-7.06A73.06,73.06,0,0,0,102,226.89a96.41,96.41,0,0,0,14.56-28.44,109.83,109.83,0,0,0,5.27-34.28q0-23.05-8.63-34.16t-23.4-11.08a54.18,54.18,0,0,0-20.39,4.48,58.83,58.83,0,0,0-19.49,13,87.05,87.05,0,0,0-9.74,11.31,79.1,79.1,0,0,0-6.83,12H28.43q3.59-13,5.82-23.07T38.06,118H43a56.07,56.07,0,0,0-.67,7.62q0,4.92,1.9,5.48t5.49-1.67a137.72,137.72,0,0,1,18-10.2Q77,114.89,91.82,114.89Zm-37,56.68a32.59,32.59,0,0,1,12.21,2.12,82.8,82.8,0,0,1,10,4.82,82.08,82.08,0,0,0,10,4.82,32.31,32.31,0,0,0,12.2,2.12,40.1,40.1,0,0,0,12.44-2.24,17.24,17.24,0,0,0,10.19-8.51l1.34,1.12a32.35,32.35,0,0,1-14.45,17,41,41,0,0,1-20.27,5.6,33.28,33.28,0,0,1-12.32-2.13,79.55,79.55,0,0,1-10.08-4.82,97.11,97.11,0,0,0-9.63-4.81,27.4,27.4,0,0,0-11-2.13,28.51,28.51,0,0,0-10.86,2.35,33.74,33.74,0,0,0-10.42,6.83l-2.24-2.69a95.21,95.21,0,0,1,14.79-14Q44.11,171.58,54.86,171.57Z" transform="translate(-0.59)"/><path class="cls-2" d="M194,199.57l1.12-4.48h10.08q21.5,0,34.05-6.84t17.92-18.48A60.77,60.77,0,0,0,262.51,144q0-10.74-6.61-16.12t-21.84-5.38q-9.85,0-13.88,3.92T213,141.77l-23.52,88.71a64.56,64.56,0,0,0-1.79,10.75,6.18,6.18,0,0,0,3,6.05q3.24,2,12,2.46l-.89,4.48q-5.16-.45-12.55-.56T174,253.55q-8.73,0-16.57.11t-12.55.56l.9-4.48A51.07,51.07,0,0,0,157.68,248a12,12,0,0,0,6.72-5.38c1.64-2.68,3.14-6.72,4.48-12.09l23.52-88.71A50.32,50.32,0,0,0,194,131a6.67,6.67,0,0,0-3.25-6.05q-3.25-2-11.54-2.46L180.3,118q3.13.23,7.62.34l9.74.22c3.51.08,6.91.11,10.2.11q8.05,0,16.24-.22t16.46-.23q22.62,0,33.6,8.07t11,21.28q0,14.79-10.42,26.54t-28.9,18.59q-18.48,6.84-42.89,6.84Z" transform="translate(-0.59)"/><path class="cls-2" d="M323.21,138.64q3.14-12.31.56-15.57T310,119.38l1.12-4.49c2.38.15,5.33.31,8.84.45s7.21.23,11.09.23q5.16,0,10.08-.23c3.29-.14,6.2-.3,8.74-.45L368,233.17l-2-.45,81.31-117.15h10.75q7.85,0,15.23-.23c4.93-.14,9.19-.3,12.77-.45l-1.12,4.49a42,42,0,0,0-11.87,1.67,12.11,12.11,0,0,0-6.61,5.38c-1.57,2.61-3.1,6.69-4.59,12.21l-24.42,91.84q-3.13,12.32-.56,15.57t13.78,3.69l-.9,4.48c-3.44-.3-7.61-.48-12.54-.56s-10-.11-15.23-.11q-8.75,0-16.58.11t-12.54.56l.89-4.48a50.32,50.32,0,0,0,12-1.79,11.48,11.48,0,0,0,6.49-5.38,53.22,53.22,0,0,0,4.59-12.09L445.07,125.2l1.34.67L356.36,255.34h-4.92L330.38,123.85l1.57-.22L304.4,228.24c-1.35,5.37-1.95,9.6-1.8,12.65a7.07,7.07,0,0,0,4.15,6.5q3.92,1.91,12.43,2.35l-1.12,4.48c-2.69-.3-6.16-.48-10.42-.56s-8.32-.11-12.2-.11-7.55,0-11.43.11-7.09.26-9.63.56l1.12-4.48q11.64-.45,16.13-4.81t7.84-16.69Z" transform="translate(-0.59)"/><path class="cls-2" d="M513.84,230.48q-3.15,12.32-.68,15.57t13.67,3.69l-1.12,4.48q-4.94-.45-12.66-.56t-15.57-.11q-8.73,0-16.24.11t-12.43.56l1.12-4.48A51.07,51.07,0,0,0,481.8,248a11.9,11.9,0,0,0,6.72-5.38c1.65-2.68,3.14-6.72,4.48-12.09l24-88.71q3.13-12.32.67-15.56T504,122.51L505.1,118q4.47.23,12.1.45t16.35.22q7.83,0,15.57-.22t13.1-.45l-1.12,4.48a43.33,43.33,0,0,0-12,1.68,12,12,0,0,0-6.72,5.38q-2.35,3.92-4.6,12.2Zm-5.83,9-1.79-4.26L618.89,131.25l2,4.48ZM610.6,141.77q3.14-12.32.68-15.56t-13.67-3.7l1.12-4.48q5.16.23,12.88.45t15.35.22q8.73,0,16.35-.22t12.54-.45l-1.12,4.48a43.33,43.33,0,0,0-12,1.68,12.06,12.06,0,0,0-6.72,5.38q-2.35,3.92-4.59,12.2l-24,88.71q-3.15,12.32-.67,15.57t13.66,3.69l-1.12,4.48q-4.49-.45-12.1-.56t-16.35-.11q-7.62,0-15.45.11t-13.22.56l1.12-4.48a52,52,0,0,0,12.1-1.79,12,12,0,0,0,6.72-5.38c1.64-2.68,3.13-6.72,4.48-12.09Z" transform="translate(-0.59)"/><path class="cls-2" d="M795.4,118.48a21.89,21.89,0,0,1-3.92-5.49,15.1,15.1,0,0,1-1.68-7.06,14.63,14.63,0,0,1,2.69-8.4q2.68-3.91,8.29-3.92,5.15,0,7.61,3.14a11.58,11.58,0,0,1,2.47,7.39,16,16,0,0,1-2.91,9.19,29,29,0,0,1-7.4,7.39,52.83,52.83,0,0,1-13.32,5.37,72.58,72.58,0,0,1-17.59,1.8,160.66,160.66,0,0,1-23.18-1.68q-11.55-1.68-22.63-3.36a142.77,142.77,0,0,0-21.39-1.68,76,76,0,0,0-11.87.89,27.71,27.71,0,0,0-9.18,2.91,17.89,17.89,0,0,1,2.91,5.94,24.61,24.61,0,0,1,1.12,7.06,16.14,16.14,0,0,1-2.69,8.73Q680,151,674.22,151a8.85,8.85,0,0,1-7.28-3.14,12.27,12.27,0,0,1-2.58-8.06,18.63,18.63,0,0,1,2.69-9.52q2.69-4.59,9-8a36.31,36.31,0,0,1,14.34-4.48q7.38-.68,11-.68a175.55,175.55,0,0,1,23.75,1.57l22.62,3.14a165.34,165.34,0,0,0,22.85,1.57,66.64,66.64,0,0,0,14.11-1.24A49.14,49.14,0,0,0,795.4,118.48Zm-64.06,2.91q4,.9,6.94,1.57c1.94.45,3.84.93,5.71,1.46s4.15,1.08,6.84,1.67L721.26,228.24q-3.59,12.31-.45,16.8t17.25,4.7l-.9,4.48q-5.82-.45-14.78-.56t-18.59-.11q-9.64,0-18.48.11c-5.91.08-10.64.26-14.23.56l.9-4.48q9.4-.45,14.67-2.24a15.86,15.86,0,0,0,8.29-6.27q3-4.48,5.48-13Z" transform="translate(-0.59)"/><path class="cls-2" d="M856.1,140,790,222.19a48.36,48.36,0,0,0-7.84,12.88q-2.23,5.94.45,9.86t12.1,4.81v4.48a83.63,83.63,0,0,0-8.85-.56c-3.66-.07-7.5-.11-11.54-.11q-3.8,0-10.19.11a77.84,77.84,0,0,0-9.29.56v-4.48a24.24,24.24,0,0,0,8.51-4.37,65.27,65.27,0,0,0,8.4-7.72q4.14-4.49,7.5-8.74l90.05-112.45h3.36l13.89,119q1.11,8.06,4.37,11.08a10.74,10.74,0,0,0,6.6,3.25l-1.12,4.48c-3-.3-6.72-.48-11.2-.56s-8.88-.11-13.21-.11q-8.07,0-15.23.11t-11.65.56l1.12-4.48q10.75-.45,15.68-3.92t3.58-14.89l-11-90.5Zm-48.83,58.69H868.2l-1.79,4.48H803.24Z" transform="translate(-0.59)"/><path class="cls-2" d="M908.74,235.18c1.79,3.74,3.89,6.31,6.27,7.73a13.93,13.93,0,0,0,7.17,2.13,9.33,9.33,0,0,0,7.62-3.25,36.57,36.57,0,0,0,4.93-8.18L943.46,215q5.38-11.64,12.21-18.14A47,47,0,0,1,971.13,187a88.74,88.74,0,0,1,19.15-4.93l-.9,2.24a59.43,59.43,0,0,0-12.09,8q-6.06,5-11.88,18.25l-9,20.83q-5.6,13.23-11.31,19.6t-15.79,6.39a23.23,23.23,0,0,1-14.56-4.82q-6.27-4.81-9.41-15.79ZM965,119.6h-.45a34.63,34.63,0,0,1,1.23,3.36,12.81,12.81,0,0,1,.56,3.81,14.85,14.85,0,0,1-2.13,7.5,17.07,17.07,0,0,1-5.6,5.94,14,14,0,0,1-7.73,2.24c-2.68,0-4.52-.68-5.48-2a8.11,8.11,0,0,1-1.46-4.93,18.37,18.37,0,0,1,3-10.08,23.31,23.31,0,0,1,8.07-7.61,21.37,21.37,0,0,1,10.86-2.92,16.57,16.57,0,0,1,5.83,1,11,11,0,0,1,4.92,4.15q2.91,4,1.8,11.53t-3,16a74,74,0,0,0-1.9,16.13,20.12,20.12,0,0,0,3.58,12q3.59,5,13.44,5.71l-.89,2.24q-12.55.22-16.8-5.37a22.28,22.28,0,0,1-4.26-13.89,72.42,72.42,0,0,1,1.79-15.57q1.8-8.18,2.91-15.23c.75-4.71.3-8.32-1.34-10.87a5.57,5.57,0,0,0-2.8-2.35A10.82,10.82,0,0,0,965,119.6Zm49.72,110.88q-3.13,12.32-.67,15.57t13.89,3.69l-.9,4.48q-5.14-.45-12.88-.56t-15.56-.11q-8.75,0-16.13.11t-12.32.56l1.12-4.48A48.35,48.35,0,0,0,982.77,248a11.91,11.91,0,0,0,6.61-5.38c1.64-2.68,3.14-6.72,4.48-12.09l23.52-88.71q3.14-12.32.56-15.56t-13.77-3.7l1.12-4.48q4.47.23,12.09.45t16.35.22q7.85,0,15.57-.22t13.11-.45l-1.12,4.48a42.11,42.11,0,0,0-11.88,1.68,12,12,0,0,0-6.6,5.38q-2.36,3.92-4.6,12.2ZM988,181.42q8.51-3.13,11.2-2.24c1.79.6,2.38,1.94,1.79,4q-1.35,5.39-6.27,4.48a63.69,63.69,0,0,1-9-2.24Zm58,3.81q-7.6,2.91-11.31,2.58c-2.46-.23-3.55-1.46-3.25-3.7a5.54,5.54,0,0,1,3.36-4.48q2.91-1.35,9.86,1.79ZM1080.33,245a12.36,12.36,0,0,0,9.63-4.26q3.81-4.25,6.94-13.21l3.81-11.43h4.48l-5.82,17.25q-4.26,12.31-11,18.14a24.07,24.07,0,0,1-16.35,5.83q-10.53,0-15.23-6.83t-3.59-19.16l1.35-16.57q1.11-12.31-2.47-21.28t-10.53-9.19l.45-2.24a60.61,60.61,0,0,1,17.36,4.71,22.94,22.94,0,0,1,11,10.41q3.69,7.06,3,19.83l-.89,16.35q-.24,7.17,2.24,9.41A8.09,8.09,0,0,0,1080.33,245Zm13.21-122.31q-4.26,4-7.17,11.54t-5.93,16a111.09,111.09,0,0,1-7.28,16.24,36.45,36.45,0,0,1-11.2,12.54q-6.95,4.81-17.92,4.59l.45-2.24q10.08-.88,16.24-6a36.83,36.83,0,0,0,9.74-12.76,134.91,134.91,0,0,0,6.27-15.91q2.68-8.28,5.6-15.45a27.42,27.42,0,0,1,7.84-11.2,21.25,21.25,0,0,1,7.17-4.15,22,22,0,0,1,6.27-1q7.85,0,10.75,3.92a13.29,13.29,0,0,1,2.47,9.3,20.93,20.93,0,0,1-3.25,9.18q-3,5.16-9.74,5.16c-3.29,0-5.6-1-6.95-3a10.44,10.44,0,0,1-1.79-6.61,17.15,17.15,0,0,1,2.24-6.83,24.45,24.45,0,0,1,4.93-6.38h-.67a11.11,11.11,0,0,0-4.6.78A15.52,15.52,0,0,0,1093.54,122.73Z" transform="translate(-0.59)"/></svg>