<svg id="Capa_1" data-name="Capa 1" xmlns="http://www.w3.org/2000/svg" viewBox="0 0 80.22 33.8"><defs><style>.cls-1{fill:none;stroke:#000;stroke-miterlimit:10;stroke-width:2px;}</style></defs><title>logo</title><path class="cls-1" d="M22.05,12.6q5.55,0,8.62,3.1t3.08,8.65a19.31,19.31,0,0,1-1.5,7.5A20.48,20.48,0,0,1,28,38.27a20.25,20.25,0,0,1-6.4,4.48,19.48,19.48,0,0,1-8.07,1.65A12.2,12.2,0,0,1,9.9,44a7,7,0,0,1-2.3-1.18,17.5,17.5,0,0,1-1.75-1.62q-.7-.8-1.35-.15a8,8,0,0,0-1.4,2.7H2c.43-1.23.91-2.7,1.42-4.4s1.06-3.68,1.63-5.95h1.1a16.78,16.78,0,0,0-.1,3.2A8.2,8.2,0,0,0,6.8,39.6a6.54,6.54,0,0,0,2.7,2.82,8.46,8.46,0,0,0,4.35,1.08,11.08,11.08,0,0,0,5.72-1.58,16.26,16.26,0,0,0,4.75-4.32,21.27,21.27,0,0,0,3.25-6.35,24.31,24.31,0,0,0,1.18-7.65c0-3.43-.64-6-1.93-7.63A6.25,6.25,0,0,0,21.6,13.5a12,12,0,0,0-4.55,1,13.17,13.17,0,0,0-4.35,2.9,19.81,19.81,0,0,0-2.18,2.52A18.28,18.28,0,0,0,9,22.6H7.9c.53-1.93,1-3.65,1.3-5.15s.62-2.88.85-4.15h1.1A12.62,12.62,0,0,0,11,15c0,.73.14,1.14.42,1.22a1.65,1.65,0,0,0,1.23-.37,30.89,30.89,0,0,1,4-2.28A12.75,12.75,0,0,1,22.05,12.6ZM13.8,25.25a7.34,7.34,0,0,1,2.72.47,18.42,18.42,0,0,1,2.23,1.08A17.5,17.5,0,0,0,21,27.87a7.23,7.23,0,0,0,2.73.48,9,9,0,0,0,2.77-.5A3.85,3.85,0,0,0,28.75,26l.3.25A7.2,7.2,0,0,1,25.82,30a9.16,9.16,0,0,1-4.52,1.25,7.37,7.37,0,0,1-2.75-.48A16.68,16.68,0,0,1,16.3,29.7a22.73,22.73,0,0,0-2.15-1.08,6.22,6.22,0,0,0-2.45-.47,6.37,6.37,0,0,0-2.43.52A7.43,7.43,0,0,0,7,30.2l-.5-.6a21.13,21.13,0,0,1,3.3-3.13A6.64,6.64,0,0,1,13.8,25.25Z" transform="translate(-0.59 -11.6)"/><path class="cls-1" d="M33.35,39.45a3.86,3.86,0,0,0,1.4,1.72,3.09,3.09,0,0,0,1.6.48,2.07,2.07,0,0,0,1.7-.73,8,8,0,0,0,1.1-1.82l2-4.15a13.3,13.3,0,0,1,2.72-4.05,10.51,10.51,0,0,1,3.45-2.2,19.69,19.69,0,0,1,4.28-1.1l-.2.5a13,13,0,0,0-2.7,1.77A11.3,11.3,0,0,0,46,34L44,38.6A15.92,15.92,0,0,1,41.47,43,4.48,4.48,0,0,1,38,44.4a5.17,5.17,0,0,1-3.25-1.08,6.56,6.56,0,0,1-2.1-3.52ZM45.9,13.65h-.1a6.54,6.54,0,0,1,.27.75,2.65,2.65,0,0,1,.13.85,3.27,3.27,0,0,1-.48,1.67,3.71,3.71,0,0,1-1.25,1.33,3.12,3.12,0,0,1-1.72.5,1.44,1.44,0,0,1-1.23-.45,1.88,1.88,0,0,1-.32-1.1A4.08,4.08,0,0,1,41.87,15a5.15,5.15,0,0,1,1.8-1.7,4.81,4.81,0,0,1,2.43-.65,3.66,3.66,0,0,1,1.3.22,2.43,2.43,0,0,1,1.1.93,3.44,3.44,0,0,1,.4,2.57c-.17,1.12-.39,2.31-.68,3.58a16.75,16.75,0,0,0-.42,3.6,4.51,4.51,0,0,0,.8,2.67,3.78,3.78,0,0,0,3,1.28l-.2.5q-2.8,0-3.75-1.2a5,5,0,0,1-.95-3.1,16.1,16.1,0,0,1,.4-3.48c.27-1.21.48-2.35.65-3.4a3.39,3.39,0,0,0-.3-2.42,1.24,1.24,0,0,0-.63-.53A2.51,2.51,0,0,0,45.9,13.65ZM57,38.4c-.47,1.83-.52,3-.15,3.47s1.4.76,3.1.83l-.2,1c-.77-.07-1.73-.11-2.88-.13l-3.47,0-3.6,0c-1.1,0-2,.06-2.75.13l.25-1a10.91,10.91,0,0,0,2.57-.4,2.67,2.67,0,0,0,1.48-1.2,9.94,9.94,0,0,0,1-2.7L57.6,18.6q.7-2.75.12-3.48c-.38-.48-1.4-.75-3.07-.82l.25-1c.67,0,1.57.07,2.7.1s2.35,0,3.65,0,2.32,0,3.47,0l2.93-.1-.25,1a9.53,9.53,0,0,0-2.65.37,2.74,2.74,0,0,0-1.48,1.2,11.44,11.44,0,0,0-1,2.73Zm-6-10.95a4.86,4.86,0,0,1,2.5-.5c.4.13.53.43.4.9-.2.8-.67,1.13-1.4,1a14.24,14.24,0,0,1-2-.5Zm13,.85a6.4,6.4,0,0,1-2.53.57c-.55-.05-.79-.32-.72-.82a1.24,1.24,0,0,1,.75-1,3,3,0,0,1,2.2.4Zm7.65,13.35a2.77,2.77,0,0,0,2.15-.95,8.87,8.87,0,0,0,1.55-3l.85-2.55h1l-1.3,3.85a9.24,9.24,0,0,1-2.45,4.05,5.37,5.37,0,0,1-3.65,1.3,3.82,3.82,0,0,1-3.4-1.53,6.37,6.37,0,0,1-.8-4.27l.3-3.7a10.22,10.22,0,0,0-.55-4.75c-.53-1.33-1.32-2-2.35-2l.1-.5a13.44,13.44,0,0,1,3.87,1A5.07,5.07,0,0,1,69.42,31a8.7,8.7,0,0,1,.68,4.43l-.2,3.65a2.75,2.75,0,0,0,.5,2.1A1.82,1.82,0,0,0,71.65,41.65Zm2.95-27.3A7,7,0,0,0,73,16.92c-.43,1.12-.88,2.31-1.33,3.58a24.62,24.62,0,0,1-1.62,3.62,8.05,8.05,0,0,1-2.5,2.8,6.63,6.63,0,0,1-4,1l.1-.5a6.3,6.3,0,0,0,3.62-1.35,8.22,8.22,0,0,0,2.18-2.85,30.82,30.82,0,0,0,1.4-3.55c.4-1.23.82-2.38,1.25-3.45a6.1,6.1,0,0,1,1.75-2.5,4.74,4.74,0,0,1,1.6-.93,4.89,4.89,0,0,1,1.4-.22,2.82,2.82,0,0,1,2.4.87,3,3,0,0,1,.55,2.08,4.68,4.68,0,0,1-.73,2.05,2.32,2.32,0,0,1-2.17,1.15,1.73,1.73,0,0,1-1.55-.68A2.34,2.34,0,0,1,75,16.6a3.75,3.75,0,0,1,.5-1.53,5.56,5.56,0,0,1,1.1-1.42H76.4a2.63,2.63,0,0,0-1,.17A3.67,3.67,0,0,0,74.6,14.35Z" transform="translate(-0.59 -11.6)"/></svg>