<svg xmlns="http://www.w3.org/2000/svg" xmlns:xlink="http://www.w3.org/1999/xlink" viewBox="0 0 32 40" version="1.1" width="30px" x="0px" y="0px">

    <g stroke="none" stroke-width="1" fill="none" fill-rule="evenodd">
        <path d="M17,27 L27,27 L22,17 L18,25 L12,13 L5,27 L12,27 L27,27 L27,5 L5,5 L5,27 L12,27 L17,27 Z M3,3 L29,3 L29,29 L3,29 L3,3 Z M21,15 C18.790861,15 17,13.209139 17,11 C17,8.790861 18.790861,7 21,7 C23.209139,7 25,8.790861 25,11 C25,13.209139 23.209139,15 21,15 Z M21,13 C22.1045695,13 23,12.1045695 23,11 C23,9.8954305 22.1045695,9 21,9 C19.8954305,9 19,9.8954305 19,11 C19,12.1045695 19.8954305,13 21,13 Z M12,17 L7,27 L17,27 L12,17 Z M22,21 L19,27 L25,27 L22,21 Z" fill="#000000"/>
    </g>
 
</svg>
