<svg xmlns="http://www.w3.org/2000/svg" xmlns:xlink="http://www.w3.org/1999/xlink" version="1.1" x="0px" y="0px" width="30px" viewBox="0 0 100 125" style="enable-background:new 0 0 100 100;" xml:space="preserve">
<g stroke-width="2" troke="none"  >
<path d="M65.3,46c3.7-4.3,5.9-9.9,5.9-16V15V7h-8H36.8h-8v8v32v3C21.6,56,17,65.1,17,75.2V85v8h8h50h8v-8v-9.8   C83,62.6,75.8,51.5,65.3,46z M75,85H25v-9.8c0-8.4,4.1-15.8,10.4-20.3h1.4h9.4c4.5,0,8.7-1.2,12.3-3.2C68.1,55.2,75,64.4,75,75.2   V85z M36.8,46.9V15h26.4v15c0,9.4-7.6,17-17,17H36.8z"/></g>
</svg>