<svg xmlns="http://www.w3.org/2000/svg" xmlns:xlink="http://www.w3.org/1999/xlink" viewBox="0 0 24 30" version="1.1" width="30px" x="0px" y="0px">

    <g  fill="none" fill-rule="evenodd">
        <g fill-rule="nonzero">
            <rect x="0" y="0" width="30" height="30"/>
            <path stroke="black" stroke-width="0.5" d="M17.7077467,17.0006399 L22.0133009,21.3061941 L21.3061941,22.0133009 L17.0006399,17.7077467 C15.4082939,19.1332071 13.3053721,20 11,20 C6.02943725,20 2,15.9705627 2,11 C2,6.02943725 6.02943725,2 11,2 C15.9705627,2 20,6.02943725 20,11 C20,13.3053721 19.1332071,15.4082939 17.7077467,17.0006399 Z M11,19 C15.418278,19 19,15.418278 19,11 C19,6.581722 15.418278,3 11,3 C6.581722,3 3,6.581722 3,11 C3,15.418278 6.581722,19 11,19 Z M7.5,10.5 L14.5,10.5 L14.5,11.5 L7.5,11.5 L7.5,10.5 Z" fill="#000000"/>
        </g>
    </g>
</svg>
